<mxfile host="app.diagrams.net" modified="2021-12-09T14:01:46.195Z" agent="5.0 (Windows NT 10.0; Win64; x64) AppleWebKit/537.36 (KHTML, like Gecko) Chrome/96.0.4664.45 Safari/537.36" etag="6bRUysUIixTeQ0AXGnKQ" version="15.8.6" type="github">
  <diagram id="C5RBs43oDa-KdzZeNtuy" name="Page-1">
    <mxGraphModel dx="3210" dy="2362" grid="1" gridSize="10" guides="1" tooltips="1" connect="1" arrows="1" fold="1" page="1" pageScale="1" pageWidth="827" pageHeight="1169" math="0" shadow="0">
      <root>
        <mxCell id="WIyWlLk6GJQsqaUBKTNV-0" />
        <mxCell id="WIyWlLk6GJQsqaUBKTNV-1" parent="WIyWlLk6GJQsqaUBKTNV-0" />
        <mxCell id="HuM8jSOjWgcdjnHP4BGD-0" value="" style="whiteSpace=wrap;html=1;aspect=fixed;fontFamily=Helvetica;" vertex="1" parent="WIyWlLk6GJQsqaUBKTNV-1">
          <mxGeometry x="-90" y="30" width="900" height="900" as="geometry" />
        </mxCell>
        <mxCell id="HuM8jSOjWgcdjnHP4BGD-3" value="VPC" style="text;html=1;strokeColor=none;fillColor=none;align=center;verticalAlign=middle;whiteSpace=wrap;rounded=0;fontFamily=Helvetica;fontStyle=1;fontSize=26;" vertex="1" parent="WIyWlLk6GJQsqaUBKTNV-1">
          <mxGeometry x="-50" y="60" width="90" height="70" as="geometry" />
        </mxCell>
        <mxCell id="HuM8jSOjWgcdjnHP4BGD-26" style="edgeStyle=orthogonalEdgeStyle;rounded=0;orthogonalLoop=1;jettySize=auto;html=1;entryX=0.5;entryY=1;entryDx=0;entryDy=0;fontFamily=Helvetica;fontSize=17;" edge="1" parent="WIyWlLk6GJQsqaUBKTNV-1" source="HuM8jSOjWgcdjnHP4BGD-4" target="HuM8jSOjWgcdjnHP4BGD-24">
          <mxGeometry relative="1" as="geometry" />
        </mxCell>
        <mxCell id="HuM8jSOjWgcdjnHP4BGD-32" style="edgeStyle=orthogonalEdgeStyle;rounded=0;orthogonalLoop=1;jettySize=auto;html=1;exitX=1;exitY=0.5;exitDx=0;exitDy=0;fontFamily=Helvetica;fontSize=17;" edge="1" parent="WIyWlLk6GJQsqaUBKTNV-1" source="HuM8jSOjWgcdjnHP4BGD-4" target="HuM8jSOjWgcdjnHP4BGD-16">
          <mxGeometry relative="1" as="geometry" />
        </mxCell>
        <mxCell id="HuM8jSOjWgcdjnHP4BGD-4" value="" style="rounded=1;whiteSpace=wrap;html=1;fontFamily=Helvetica;fontSize=26;" vertex="1" parent="WIyWlLk6GJQsqaUBKTNV-1">
          <mxGeometry x="45" y="170" width="300" height="152.5" as="geometry" />
        </mxCell>
        <mxCell id="HuM8jSOjWgcdjnHP4BGD-21" style="edgeStyle=orthogonalEdgeStyle;rounded=0;orthogonalLoop=1;jettySize=auto;html=1;exitX=1;exitY=0.5;exitDx=0;exitDy=0;entryX=0;entryY=0.5;entryDx=0;entryDy=0;fontFamily=Helvetica;fontSize=17;" edge="1" parent="WIyWlLk6GJQsqaUBKTNV-1" source="HuM8jSOjWgcdjnHP4BGD-9" target="HuM8jSOjWgcdjnHP4BGD-19">
          <mxGeometry relative="1" as="geometry" />
        </mxCell>
        <mxCell id="HuM8jSOjWgcdjnHP4BGD-76" style="edgeStyle=orthogonalEdgeStyle;rounded=0;orthogonalLoop=1;jettySize=auto;html=1;entryX=0.584;entryY=1.032;entryDx=0;entryDy=0;entryPerimeter=0;fontFamily=Helvetica;fontSize=17;fontColor=#000033;elbow=vertical;" edge="1" parent="WIyWlLk6GJQsqaUBKTNV-1" source="HuM8jSOjWgcdjnHP4BGD-9" target="HuM8jSOjWgcdjnHP4BGD-4">
          <mxGeometry relative="1" as="geometry" />
        </mxCell>
        <mxCell id="HuM8jSOjWgcdjnHP4BGD-9" value="" style="rounded=1;whiteSpace=wrap;html=1;fontFamily=Helvetica;fontSize=26;" vertex="1" parent="WIyWlLk6GJQsqaUBKTNV-1">
          <mxGeometry x="53.75" y="420" width="272.5" height="140" as="geometry" />
        </mxCell>
        <mxCell id="HuM8jSOjWgcdjnHP4BGD-20" style="edgeStyle=orthogonalEdgeStyle;rounded=0;orthogonalLoop=1;jettySize=auto;html=1;exitX=1;exitY=0.5;exitDx=0;exitDy=0;fontFamily=Helvetica;fontSize=17;" edge="1" parent="WIyWlLk6GJQsqaUBKTNV-1" source="HuM8jSOjWgcdjnHP4BGD-10" target="HuM8jSOjWgcdjnHP4BGD-18">
          <mxGeometry relative="1" as="geometry" />
        </mxCell>
        <mxCell id="HuM8jSOjWgcdjnHP4BGD-77" style="edgeStyle=orthogonalEdgeStyle;rounded=0;orthogonalLoop=1;jettySize=auto;html=1;fontFamily=Helvetica;fontSize=17;fontColor=#000033;elbow=vertical;exitX=0.5;exitY=0;exitDx=0;exitDy=0;" edge="1" parent="WIyWlLk6GJQsqaUBKTNV-1" source="HuM8jSOjWgcdjnHP4BGD-10">
          <mxGeometry relative="1" as="geometry">
            <mxPoint x="230" y="600" as="targetPoint" />
          </mxGeometry>
        </mxCell>
        <mxCell id="HuM8jSOjWgcdjnHP4BGD-10" value="" style="rounded=1;whiteSpace=wrap;html=1;fontFamily=Helvetica;fontSize=26;" vertex="1" parent="WIyWlLk6GJQsqaUBKTNV-1">
          <mxGeometry x="45" y="700" width="290" height="140" as="geometry" />
        </mxCell>
        <mxCell id="HuM8jSOjWgcdjnHP4BGD-11" value="application subnet" style="text;html=1;strokeColor=none;fillColor=none;align=center;verticalAlign=middle;whiteSpace=wrap;rounded=0;fontFamily=Helvetica;fontSize=17;fontColor=#000033;" vertex="1" parent="WIyWlLk6GJQsqaUBKTNV-1">
          <mxGeometry x="250" y="530" width="60" height="20" as="geometry" />
        </mxCell>
        <mxCell id="HuM8jSOjWgcdjnHP4BGD-12" value="database subnet" style="text;html=1;strokeColor=none;fillColor=none;align=center;verticalAlign=middle;whiteSpace=wrap;rounded=0;fontFamily=Helvetica;fontSize=17;fontColor=#000033;" vertex="1" parent="WIyWlLk6GJQsqaUBKTNV-1">
          <mxGeometry x="266.25" y="800" width="60" height="30" as="geometry" />
        </mxCell>
        <mxCell id="HuM8jSOjWgcdjnHP4BGD-13" value="presentation subnet" style="text;html=1;strokeColor=none;fillColor=none;align=center;verticalAlign=middle;whiteSpace=wrap;rounded=0;fontFamily=Helvetica;fontSize=17;fontColor=#000033;fontStyle=0" vertex="1" parent="WIyWlLk6GJQsqaUBKTNV-1">
          <mxGeometry x="266.25" y="280" width="60" height="25" as="geometry" />
        </mxCell>
        <mxCell id="HuM8jSOjWgcdjnHP4BGD-16" value="public" style="text;html=1;strokeColor=none;fillColor=none;align=center;verticalAlign=middle;whiteSpace=wrap;rounded=0;fontFamily=Helvetica;fontSize=17;" vertex="1" parent="WIyWlLk6GJQsqaUBKTNV-1">
          <mxGeometry x="610" y="231.25" width="60" height="30" as="geometry" />
        </mxCell>
        <mxCell id="HuM8jSOjWgcdjnHP4BGD-18" value="private" style="text;html=1;strokeColor=none;fillColor=none;align=center;verticalAlign=middle;whiteSpace=wrap;rounded=0;fontFamily=Helvetica;fontSize=17;" vertex="1" parent="WIyWlLk6GJQsqaUBKTNV-1">
          <mxGeometry x="620" y="755" width="60" height="30" as="geometry" />
        </mxCell>
        <mxCell id="HuM8jSOjWgcdjnHP4BGD-19" value="private" style="text;html=1;strokeColor=none;fillColor=none;align=center;verticalAlign=middle;whiteSpace=wrap;rounded=0;fontFamily=Helvetica;fontSize=17;" vertex="1" parent="WIyWlLk6GJQsqaUBKTNV-1">
          <mxGeometry x="610" y="475" width="60" height="30" as="geometry" />
        </mxCell>
        <mxCell id="HuM8jSOjWgcdjnHP4BGD-24" value="" style="ellipse;whiteSpace=wrap;html=1;aspect=fixed;fontFamily=Helvetica;fontSize=17;" vertex="1" parent="WIyWlLk6GJQsqaUBKTNV-1">
          <mxGeometry x="300" y="-150" width="150" height="150" as="geometry" />
        </mxCell>
        <mxCell id="HuM8jSOjWgcdjnHP4BGD-25" value="IGW" style="text;html=1;strokeColor=none;fillColor=none;align=center;verticalAlign=middle;whiteSpace=wrap;rounded=0;fontFamily=Helvetica;fontSize=17;" vertex="1" parent="WIyWlLk6GJQsqaUBKTNV-1">
          <mxGeometry x="345" y="-80" width="60" height="30" as="geometry" />
        </mxCell>
        <mxCell id="HuM8jSOjWgcdjnHP4BGD-41" value="" style="endArrow=none;html=1;rounded=0;fontFamily=Helvetica;fontSize=17;edgeStyle=orthogonalEdgeStyle;fontStyle=1" edge="1" parent="WIyWlLk6GJQsqaUBKTNV-1">
          <mxGeometry width="50" height="50" relative="1" as="geometry">
            <mxPoint x="25" y="425" as="sourcePoint" />
            <mxPoint x="25" y="425" as="targetPoint" />
            <Array as="points">
              <mxPoint x="25" y="600" />
              <mxPoint x="390" y="600" />
              <mxPoint x="390" y="385" />
              <mxPoint x="25" y="385" />
            </Array>
          </mxGeometry>
        </mxCell>
        <mxCell id="HuM8jSOjWgcdjnHP4BGD-49" value="Network ACL" style="edgeLabel;html=1;align=center;verticalAlign=middle;resizable=0;points=[];fontSize=17;fontFamily=Helvetica;fontColor=#FF3333;" vertex="1" connectable="0" parent="HuM8jSOjWgcdjnHP4BGD-41">
          <mxGeometry x="0.646" relative="1" as="geometry">
            <mxPoint x="-70" as="offset" />
          </mxGeometry>
        </mxCell>
        <mxCell id="HuM8jSOjWgcdjnHP4BGD-63" value="" style="endArrow=none;dashed=1;html=1;dashPattern=1 3;strokeWidth=2;rounded=0;fontFamily=Helvetica;fontSize=17;fontColor=#FFD966;elbow=vertical;edgeStyle=orthogonalEdgeStyle;" edge="1" parent="WIyWlLk6GJQsqaUBKTNV-1">
          <mxGeometry width="50" height="50" relative="1" as="geometry">
            <mxPoint x="90" y="455" as="sourcePoint" />
            <mxPoint x="90" y="455" as="targetPoint" />
            <Array as="points">
              <mxPoint x="90" y="515" />
              <mxPoint x="240" y="515" />
              <mxPoint x="240" y="455" />
            </Array>
          </mxGeometry>
        </mxCell>
        <mxCell id="HuM8jSOjWgcdjnHP4BGD-64" value="security group" style="edgeLabel;html=1;align=center;verticalAlign=middle;resizable=0;points=[];fontSize=15;fontFamily=Helvetica;fontColor=#994C00;" vertex="1" connectable="0" parent="HuM8jSOjWgcdjnHP4BGD-63">
          <mxGeometry x="0.4095" y="-1" relative="1" as="geometry">
            <mxPoint as="offset" />
          </mxGeometry>
        </mxCell>
        <mxCell id="HuM8jSOjWgcdjnHP4BGD-67" value="" style="endArrow=none;dashed=1;html=1;dashPattern=1 3;strokeWidth=2;rounded=0;fontFamily=Helvetica;fontSize=17;fontColor=#FFD966;elbow=vertical;edgeStyle=orthogonalEdgeStyle;" edge="1" parent="WIyWlLk6GJQsqaUBKTNV-1">
          <mxGeometry width="50" height="50" relative="1" as="geometry">
            <mxPoint x="105" y="740" as="sourcePoint" />
            <mxPoint x="90" y="750" as="targetPoint" />
            <Array as="points">
              <mxPoint x="90" y="740" />
              <mxPoint x="90" y="800" />
              <mxPoint x="255" y="800" />
              <mxPoint x="255" y="740" />
              <mxPoint x="90" y="740" />
            </Array>
          </mxGeometry>
        </mxCell>
        <mxCell id="HuM8jSOjWgcdjnHP4BGD-68" value="security group" style="edgeLabel;html=1;align=center;verticalAlign=middle;resizable=0;points=[];fontSize=15;fontFamily=Helvetica;fontColor=#994C00;" vertex="1" connectable="0" parent="HuM8jSOjWgcdjnHP4BGD-67">
          <mxGeometry x="0.4095" y="-1" relative="1" as="geometry">
            <mxPoint as="offset" />
          </mxGeometry>
        </mxCell>
        <mxCell id="HuM8jSOjWgcdjnHP4BGD-70" value="" style="endArrow=none;html=1;rounded=0;fontFamily=Helvetica;fontSize=17;edgeStyle=orthogonalEdgeStyle;fontStyle=1" edge="1" parent="WIyWlLk6GJQsqaUBKTNV-1">
          <mxGeometry width="50" height="50" relative="1" as="geometry">
            <mxPoint x="20" y="730" as="sourcePoint" />
            <mxPoint x="20" y="730" as="targetPoint" />
            <Array as="points">
              <mxPoint x="20" y="880" />
              <mxPoint x="380" y="880" />
              <mxPoint x="380" y="660" />
              <mxPoint x="20" y="660" />
            </Array>
          </mxGeometry>
        </mxCell>
        <mxCell id="HuM8jSOjWgcdjnHP4BGD-71" value="Network ACL" style="edgeLabel;html=1;align=center;verticalAlign=middle;resizable=0;points=[];fontSize=17;fontFamily=Helvetica;fontColor=#FF3333;" vertex="1" connectable="0" parent="HuM8jSOjWgcdjnHP4BGD-70">
          <mxGeometry x="0.646" relative="1" as="geometry">
            <mxPoint x="-35" as="offset" />
          </mxGeometry>
        </mxCell>
        <mxCell id="HuM8jSOjWgcdjnHP4BGD-78" value="" style="endArrow=none;dashed=1;html=1;dashPattern=1 3;strokeWidth=2;rounded=0;fontFamily=Helvetica;fontSize=17;fontColor=#FFD966;elbow=vertical;edgeStyle=orthogonalEdgeStyle;" edge="1" parent="WIyWlLk6GJQsqaUBKTNV-1">
          <mxGeometry width="50" height="50" relative="1" as="geometry">
            <mxPoint x="90" y="216.25" as="sourcePoint" />
            <mxPoint x="90" y="216.25" as="targetPoint" />
            <Array as="points">
              <mxPoint x="90" y="276.25" />
              <mxPoint x="240" y="276.25" />
              <mxPoint x="240" y="216.25" />
            </Array>
          </mxGeometry>
        </mxCell>
        <mxCell id="HuM8jSOjWgcdjnHP4BGD-79" value="security group" style="edgeLabel;html=1;align=center;verticalAlign=middle;resizable=0;points=[];fontSize=15;fontFamily=Helvetica;fontColor=#994C00;" vertex="1" connectable="0" parent="HuM8jSOjWgcdjnHP4BGD-78">
          <mxGeometry x="0.4095" y="-1" relative="1" as="geometry">
            <mxPoint as="offset" />
          </mxGeometry>
        </mxCell>
        <mxCell id="HuM8jSOjWgcdjnHP4BGD-80" style="edgeStyle=orthogonalEdgeStyle;rounded=0;orthogonalLoop=1;jettySize=auto;html=1;exitX=1;exitY=1;exitDx=0;exitDy=0;entryX=0.989;entryY=1;entryDx=0;entryDy=0;entryPerimeter=0;fontFamily=Helvetica;fontSize=17;fontColor=#000033;elbow=vertical;" edge="1" parent="WIyWlLk6GJQsqaUBKTNV-1" source="HuM8jSOjWgcdjnHP4BGD-0" target="HuM8jSOjWgcdjnHP4BGD-0">
          <mxGeometry relative="1" as="geometry" />
        </mxCell>
      </root>
    </mxGraphModel>
  </diagram>
</mxfile>
